<?xml version="1.0" encoding="utf-8"?>
<!-- Generator: Adobe Illustrator 24.0.2, SVG Export Plug-In . SVG Version: 6.00 Build 0)  -->
<svg version="1.1" id="Слой_1" xmlns="http://www.w3.org/2000/svg" xmlns:xlink="http://www.w3.org/1999/xlink" x="0px" y="0px"
	 viewBox="0 0 24 24" style="enable-background:new 0 0 24 24;" xml:space="preserve">
<style type="text/css">
	.st0{display:none;fill:none;}
	.st1{display:none;fill:#212121;}
	.st2{fill:none;stroke:#212121;stroke-width:1.5;stroke-linecap:round;stroke-miterlimit:10;}
	.st3{fill:#212121;stroke:#212121;stroke-miterlimit:10;}
</style>
<rect class="st0" width="24" height="24"/>
<path class="st1" d="M19,21H5V9h14V21z M6,20h12V10H6V20z"/>
<path class="st1" d="M16.5,10h-1V7c0-1.9-1.6-3.5-3.5-3.5S8.5,5.1,8.5,7v3h-1V7c0-2.5,2-4.5,4.5-4.5s4.5,2,4.5,4.5V10z"/>
<path class="st1" d="M12,16.5c-0.8,0-1.5-0.7-1.5-1.5s0.7-1.5,1.5-1.5s1.5,0.7,1.5,1.5S12.8,16.5,12,16.5z M12,14.5
	c-0.3,0-0.5,0.2-0.5,0.5s0.2,0.5,0.5,0.5s0.5-0.2,0.5-0.5S12.3,14.5,12,14.5z"/>
<g>
	<path class="st2" d="M17.9,20.8H6c-1.3,0-2.3-1-2.3-2.3V12c0-1.3,1-2.3,2.3-2.3h11.9c1.3,0,2.3,1,2.3,2.3v6.6
		C20.1,19.8,19.1,20.8,17.9,20.8z"/>
	<path class="st2" d="M14.5,9.6H9.2c-0.4,0-0.9-0.4-0.9-0.9V6.5c0-1.8,1.5-3.3,3.3-3.3H12c1.8,0,3.3,1.5,3.3,3.3v2.3
		C15.4,9.3,15.1,9.6,14.5,9.6z"/>
	<path class="st3" d="M11.9,17.9c-0.7,0-1.2-0.5-1.2-1.2v-2.9c0-0.7,0.5-1.2,1.2-1.2s1.2,0.5,1.2,1.2v2.9
		C13.1,17.4,12.6,17.9,11.9,17.9z"/>
</g>
</svg>
