<?xml version="1.0" encoding="utf-8"?>
<!-- Generator: Adobe Illustrator 24.0.2, SVG Export Plug-In . SVG Version: 6.00 Build 0)  -->
<svg version="1.1" id="Слой_1" xmlns="http://www.w3.org/2000/svg" xmlns:xlink="http://www.w3.org/1999/xlink" x="0px" y="0px"
	 viewBox="0 0 100 100" style="enable-background:new 0 0 100 100;" xml:space="preserve">
<style type="text/css">
	.st0{display:none;}
	.st1{display:inline;fill:#212121;}
	.st2{fill:none;}
	.st3{fill:none;stroke:#212121;stroke-width:5;stroke-linecap:round;stroke-miterlimit:10;}
	.st4{fill:none;stroke:#212121;stroke-width:5;stroke-linecap:round;stroke-linejoin:round;stroke-miterlimit:10;}
</style>
<g transform="translate(0 -952.36)" class="st0">
	<path class="st1" d="M17.5,977c-1.3,0-2.4,1.1-2.4,2.4v45.9c0,1.3,1.1,2.4,2.4,2.4h64.9c1.3,0,2.4-1.1,2.4-2.4v-45.9
		c0-1.3-1.1-2.4-2.4-2.4H17.5z M19.9,981.8h60.2v1.2L50,1005l-30.1-22V981.8z M19.9,988.8l28.7,21c0.8,0.6,2,0.6,2.8,0l28.7-21v34.1
		H19.9C19.9,1022.9,19.9,988.8,19.9,988.8z"/>
</g>
<rect class="st2" width="100" height="100"/>
<g>
	<path class="st3" d="M75.9,76.4H24.1c-4.7,0-8.6-3.7-8.6-8.2V32.9c0-4.5,3.8-8.2,8.6-8.2h51.8c4.7,0,8.6,3.7,8.6,8.2v35.3
		C84.7,72.7,80.6,76.4,75.9,76.4z"/>
	<path class="st4" d="M50,53.4L17.5,29"/>
	<path class="st4" d="M82.4,29L50,53.4"/>
</g>
</svg>
