<?xml version="1.0" encoding="utf-8"?>
<!-- Generator: Adobe Illustrator 24.0.2, SVG Export Plug-In . SVG Version: 6.00 Build 0)  -->
<svg version="1.1" id="Слой_1" xmlns="http://www.w3.org/2000/svg" xmlns:xlink="http://www.w3.org/1999/xlink" x="0px" y="0px"
	 viewBox="0 0 24 24" style="enable-background:new 0 0 24 24;" xml:space="preserve">
<style type="text/css">
	.st0{fill:#212121;}
</style>
<g>
	<path class="st0" d="M12,15.3c-0.6,0.6-1.2,1.2-1.8,1.8c-1.9,1.9-3.8,3.8-5.6,5.7c-0.4,0.4-0.8,0.3-1.2,0c-0.7-0.7-1.4-1.4-2-2.1
		c-0.4-0.4-0.4-0.8,0-1.3c0.1-0.1,0.1-0.1,0.2-0.2c2.4-2.4,4.7-4.7,7.1-7.1C8.6,12.1,8.7,12,8.8,12c-0.8-0.8-1.6-1.7-2.5-2.5
		c-1.7-1.7-3.4-3.3-5-5c-0.3-0.3-0.4-0.8,0-1.2c0.7-0.7,1.4-1.4,2.1-2.1c0.4-0.4,0.8-0.3,1.2,0c1.1,1.1,2.2,2.1,3.3,3.2
		c1.3,1.3,2.7,2.7,4,4c0.1,0.1,0.1,0.1,0.2,0.2c0.5-0.5,0.9-1,1.3-1.4c2-2,4-4,6-6c0.4-0.4,0.9-0.4,1.3,0c0.7,0.7,1.3,1.3,2,2
		c0.5,0.5,0.4,0.9,0,1.4c-2.3,2.2-4.5,4.5-6.8,6.7c-0.2,0.2-0.4,0.4-0.7,0.7c0.1,0.1,0.2,0.1,0.3,0.2c2.4,2.4,4.7,4.7,7.1,7.1
		c0.1,0.1,0.2,0.2,0.3,0.4c0.2,0.3,0.2,0.7-0.1,1c-0.7,0.7-1.5,1.5-2.2,2.2c-0.3,0.3-0.7,0.3-1,0c-0.1-0.1-0.2-0.2-0.3-0.3
		c-2.4-2.4-4.8-4.8-7.2-7.2C12.1,15.4,12.1,15.3,12,15.3z"/>
</g>
</svg>
