<?xml version="1.0" encoding="utf-8"?>
<!-- Generator: Adobe Illustrator 24.0.2, SVG Export Plug-In . SVG Version: 6.00 Build 0)  -->
<svg version="1.1" id="Слой_1" xmlns="http://www.w3.org/2000/svg" xmlns:xlink="http://www.w3.org/1999/xlink" x="0px" y="0px"
	 viewBox="0 0 24 24" style="enable-background:new 0 0 24 24;" xml:space="preserve">
<style type="text/css">
	.st0{fill:#212121;stroke:#212121;stroke-width:0.5;stroke-miterlimit:10;}
</style>
<path class="st0" d="M19.1,15.8L19,15.7c-0.8-1.1-1.5-1.6-2.1-1.7c-0.5-0.1-1,0.3-1.5,0.7l-0.6,0.4c-0.1,0-0.1,0.1-0.2,0.1
	c-0.3,0.1-1.2,0.1-1.6-0.3c-0.6-0.5-1.4-1.4-2.1-2.2c-0.6-0.8-1.3-1.9-1.7-2.5C8.9,9.5,9.1,8.8,9.3,8.5c0-0.1,0.1-0.1,0.1-0.2
	l0.5-0.5c0,0,0,0,0,0c0,0,0,0,0,0c0.5-0.4,0.9-0.8,1-1.3c0.1-0.6-0.3-1.4-1.1-2.4L9.7,4C9.2,3.3,8.4,2.3,7.3,2.5
	C6.9,2.5,6.5,2.7,6.1,2.9c0,0,0,0,0,0c0,0,0,0,0,0L5.5,3.4c0,0,0,0,0,0c0,0,0,0,0,0C5.4,3.5,5.3,3.5,5.2,3.6c-0.6,0.5-1.8,2-1,4.7
	c0.5,1.8,1.7,3.8,3.3,6l0,0l0.9,1.1l0,0c1.7,2,3.5,3.6,5.1,4.6c1.1,0.6,2,0.8,2.8,0.8c1,0,1.7-0.4,2.1-0.6l0.2-0.2c0,0,0,0,0.1-0.1
	l0.5-0.4c0,0,0,0,0,0c0,0,0,0,0,0c0.4-0.3,0.6-0.7,0.8-1.1C20.4,17.5,19.6,16.5,19.1,15.8z M19.4,18.3c-0.1,0.3-0.3,0.6-0.6,0.8
	L18,19.7c-0.7,0.4-2.1,1-4.2-0.3c-1.6-1-3.4-2.6-5.1-4.7l-0.5-0.6c-1.6-2.2-2.8-4.3-3.3-6C4.2,5.8,5.1,4.6,5.7,4
	C5.7,4,5.8,3.9,5.9,3.9l0,0l0.5-0.4c0.3-0.2,0.6-0.3,1-0.4C8.1,3,8.7,3.8,9.2,4.4l0.1,0.1c0.9,1.2,1,1.7,1,2c0,0.3-0.4,0.6-0.8,0.9
	l0,0c0,0,0,0,0,0c0,0,0,0,0,0L9,7.8c0,0,0,0,0,0c0,0,0,0,0,0C8.9,8,8.8,8,8.7,8.1c-0.3,0.5-0.6,1.5-0.1,2.3c0.4,0.7,1.1,1.8,1.8,2.6
	c0.7,0.8,1.6,1.8,2.1,2.3c0.4,0.4,1,0.5,1.5,0.5c0.3,0,0.5,0,0.7-0.1c0.1,0,0.2-0.1,0.3-0.1c0,0,0,0,0,0c0,0,0,0,0,0l0.6-0.4
	c0,0,0,0,0,0l0,0c0.4-0.3,0.8-0.6,1.1-0.5c0.2,0,0.8,0.3,1.7,1.4l0.1,0.1C19.1,16.8,19.7,17.6,19.4,18.3z"/>
</svg>
