<?xml version="1.0" encoding="utf-8"?>
<!-- Generator: Adobe Illustrator 24.0.2, SVG Export Plug-In . SVG Version: 6.00 Build 0)  -->
<svg version="1.1" xmlns="http://www.w3.org/2000/svg" xmlns:xlink="http://www.w3.org/1999/xlink" x="0px" y="0px"
	 viewBox="0 0 100 100" style="enable-background:new 0 0 100 100;" xml:space="preserve">
<style type="text/css">
	.st0{display:none;}
	.st1{display:inline;}
	.st2{display:none;fill:none;}
	.st3{fill:none;stroke:#212121;stroke-width:5;stroke-miterlimit:10;}
	.st4{fill:none;stroke:#212121;stroke-width:4;stroke-miterlimit:10;}
	.st5{fill:none;stroke:#212121;stroke-width:4;stroke-linecap:round;stroke-miterlimit:10;}
	.st6{fill:none;stroke:#212121;stroke-width:6;stroke-miterlimit:10;}
</style>
<g id="Слой_1" class="st0">
	<g class="st1">
		<rect x="-2.7" y="-2.7" class="st2" width="105.3" height="105.3"/>
		<path class="st3" d="M78.7,75.4H21.3c-4.1,0-7.7-3.5-7.7-7.7V33.3c0-4.1,3.5-7.7,7.7-7.7h57.4c4.1,0,7.7,3.5,7.7,7.7v34.4
			C86.3,71.9,83,75.4,78.7,75.4z"/>
		<path class="st4" d="M34.8,47c3.4,0,6.2-2.7,6.2-6c0-3.3-2.8-6-6.2-6c-3.4,0-6.2,2.7-6.2,6C28.6,44.3,31.3,47,34.8,47z"/>
		<path class="st4" d="M43.1,65.9H26.5c-1.7,0-3.1-1.4-3.1-3.1v-5.4c0-4.3,3.5-7.9,7.9-7.9h7c4.3,0,7.9,3.5,7.9,7.9v5.4
			C46.4,64.4,44.9,65.9,43.1,65.9z"/>
		<path class="st5" d="M55.9,39.1h20.9"/>
		<path class="st5" d="M55.9,46.8h20.9"/>
		<path class="st5" d="M55.9,54.3h20.9"/>
		<path class="st5" d="M55.9,61.9h20.9"/>
	</g>
</g>
<g id="Слой_2">
	<g>
		<path class="st6" d="M50.2,41.9c6.9,0,12.4-5.4,12.4-12c0-6.6-5.6-12-12.4-12c-6.9,0-12.4,5.4-12.4,12
			C37.7,36.5,43.3,41.9,50.2,41.9z"/>
		<path class="st6" d="M66.7,79.6H33.6c-3.3,0-6.2-2.9-6.2-6.2V62.6c0-8.7,7-15.7,15.7-15.7h14.1c8.7,0,15.7,7,15.7,15.7v10.8
			C73.4,76.7,70.5,79.6,66.7,79.6z"/>
	</g>
</g>
</svg>
