<?xml version="1.0" encoding="utf-8"?>
<!-- Generator: Adobe Illustrator 24.0.2, SVG Export Plug-In . SVG Version: 6.00 Build 0)  -->
<svg version="1.1" id="Слой_1" xmlns="http://www.w3.org/2000/svg" xmlns:xlink="http://www.w3.org/1999/xlink" x="0px" y="0px"
	 viewBox="0 0 501 500" style="enable-background:new 0 0 501 500;" xml:space="preserve">
<style type="text/css">
	.st0{fill:#FFFFFF;}
	.st1{fill:none;stroke:#FFFFFF;stroke-width:10;stroke-miterlimit:10;}
</style>
<g id="Слой_1_1_">
</g>
<g id="Слой_2_1_">
	<g>
		<path class="st0" d="M257.1,276c-5.3,0.5-11.1,0.8-17.3,0.8c-2.5,0-5.6-0.1-9.4-0.3c-3.8-0.2-7-0.4-9.9-0.8v67.5h-25.8V159.5
			c7.3-1.3,14.6-2.3,21.9-3c7.3-0.7,14.5-1,21.6-1c26.7,0,46.1,4.9,58.3,14.6c12.2,9.8,18.3,25.2,18.3,46.4
			c0,28.2-11.6,46.4-34.8,54.8l39.3,72h-27.8L257.1,276z M242.1,256c16.7,0,28.6-3,35.8-9.1c7.2-6.1,10.8-16.2,10.8-30.4
			s-3.5-24.3-10.6-30.4C271,180,259.3,177,243,177c-3,0-6.5,0.2-10.5,0.5s-7.9,0.8-11.8,1.3v75.5c3,0.5,6.4,0.9,10.3,1.3
			C234.7,255.9,238.4,256,242.1,256z"/>
	</g>
</g>
<rect x="75.5" y="90" class="st1" width="350" height="320"/>
</svg>
